<svg width="1340" height="272" viewBox="0 0 1340 272" fill="none" xmlns="http://www.w3.org/2000/svg">
<g clip-path="url(#clip0_167_3)">
<path d="M1316.01 20.553C1315.29 18.16 1311.88 17.3879 1305.89 18.2498C1300.45 19.0307 1293.53 21.0972 1286.42 24.0641C1279.31 27.0311 1272.84 30.5541 1268.19 33.9776C1263.08 37.7518 1260.86 40.8729 1261.58 43.2634C1262.05 44.8123 1263.64 45.6788 1266.34 45.867C1267.97 45.952 1269.6 45.8764 1271.23 45.6413L1271.25 45.665L1271.29 45.6309C1271.43 45.6123 1271.56 45.5991 1271.71 45.575C1277.15 44.7913 1284.06 42.7248 1291.16 39.757C1298.26 36.7892 1304.75 33.2701 1309.39 29.8466C1314.51 26.0618 1316.74 22.9463 1316.01 20.553ZM1290.62 37.8961C1284.97 40.2523 1279.44 42.0301 1274.73 43.0324C1279.08 40.0371 1284.85 36.9815 1291.18 34.3431C1296.28 32.2096 1301.52 30.5419 1306.84 29.3559C1302.46 32.3179 1296.79 35.3286 1290.62 37.8961ZM1310.35 26.7137C1304.65 27.542 1297.28 29.6956 1290.6 32.483C1282.51 35.8586 1275.29 39.9311 1270.68 43.7144C1267.79 44.0467 1263.69 44.1004 1263.23 42.586C1262.72 40.9065 1266.69 37.4332 1269.12 35.6381C1273.65 32.2921 1280 28.8431 1286.99 25.9244C1293.98 23.0058 1300.76 20.9809 1306.08 20.214C1307.81 19.9561 1309.54 19.8685 1311.27 19.9521C1312.86 20.0628 1314.14 20.4365 1314.4 21.2354C1314.77 22.5246 1312.51 24.8797 1310.34 26.713L1310.35 26.7137Z" fill="url(#paint0_linear_167_3)"/>
<path d="M1336.69 27.8701L1332.42 13.7488C1330.83 8.52723 1324.73 5.65042 1315.23 5.62783C1306.02 5.60878 1294.6 8.24613 1283.07 13.054C1271.54 17.8618 1261.25 24.2839 1254.13 31.1258C1246.77 38.1787 1243.59 44.9356 1245.17 50.1515L1249.45 64.2756C1250.86 68.9453 1255.91 71.7488 1263.77 72.2983C1264.69 72.3625 1265.65 72.3953 1266.64 72.3965C1275.85 72.4156 1287.27 69.7783 1298.8 64.9676C1310.33 60.1569 1320.61 53.7405 1327.74 46.9014C1335.1 39.8457 1338.27 33.0857 1336.69 27.8701ZM1246.81 49.4707C1245.5 45.1541 1248.57 39.0168 1255.22 32.6306C1262.2 25.9404 1272.29 19.6492 1283.63 14.9191C1294.97 10.1889 1306.18 7.59057 1315.19 7.61299C1316.14 7.61109 1317.05 7.64633 1317.93 7.70743C1324.99 8.20115 1329.62 10.5887 1330.78 14.4324C1332.09 18.7489 1329.02 24.8863 1322.36 31.2723C1315.39 37.9655 1305.3 44.2595 1293.96 48.9897C1282.62 53.7199 1271.41 56.3125 1262.39 56.2957C1253.8 56.2768 1248.11 53.79 1246.81 49.4707ZM1326.64 45.3966C1319.66 52.0868 1309.57 58.378 1298.24 63.1081C1286.9 67.8383 1275.69 70.4395 1266.67 70.417C1258.07 70.3839 1252.39 67.9113 1251.09 63.5921L1248.39 54.7097C1250.91 56.6543 1254.67 57.8399 1259.49 58.177C1260.41 58.2412 1261.37 58.2767 1262.36 58.2779C1271.57 58.2999 1282.99 55.6598 1294.52 50.8519C1306.05 46.044 1316.34 39.6277 1323.46 32.7855C1328.27 28.1699 1331.29 23.6792 1332.37 19.677L1335.07 28.5542C1336.37 32.8703 1333.3 39.016 1326.64 45.3938L1326.64 45.3966Z" fill="url(#paint1_linear_167_3)"/>
<path d="M1330.78 14.4209C1329.62 10.5771 1324.99 8.18958 1317.93 7.69585C1317.05 7.63476 1316.14 7.59952 1315.19 7.60142C1306.18 7.57901 1294.97 10.1634 1283.63 14.9075C1272.29 19.6516 1262.2 25.9288 1255.22 32.619C1248.57 39.0053 1245.5 45.1425 1246.81 49.4591C1248.12 53.7756 1253.8 56.2653 1262.4 56.2842C1271.41 56.3009 1282.62 53.7222 1293.96 48.9781C1305.3 44.234 1315.39 37.954 1322.36 31.2608C1329.02 24.886 1332.09 18.7486 1330.78 14.4209ZM1309.4 29.8296C1304.76 33.2531 1298.28 36.7724 1291.17 39.74C1284.07 42.7077 1277.15 44.7738 1271.72 45.5581C1271.57 45.5822 1271.44 45.5953 1271.3 45.614L1271.26 45.6481L1271.24 45.6243C1269.62 45.8595 1267.98 45.935 1266.35 45.85C1263.66 45.6619 1262.06 44.7925 1261.59 43.2464C1260.87 40.8559 1263.09 37.7348 1268.2 33.9606C1272.85 30.5371 1279.33 27.0178 1286.43 24.0472C1293.53 21.0766 1300.46 19.0137 1305.9 18.2328C1311.9 17.3715 1315.31 18.1436 1316.02 20.536C1316.74 22.9284 1314.51 26.0611 1309.4 29.8409L1309.4 29.8296Z" fill="#F2CFFF"/>
<path d="M1310.34 26.7127C1304.64 27.541 1297.27 29.6946 1290.59 32.482C1282.5 35.8575 1275.28 39.9301 1270.67 43.7134C1267.78 44.0457 1263.68 44.0995 1263.22 42.5851C1262.71 40.9055 1266.68 37.4322 1269.11 35.637C1273.64 32.2911 1279.99 28.8421 1286.98 25.9234C1293.97 23.0047 1300.75 20.9799 1306.07 20.2131C1307.8 19.9552 1309.53 19.8675 1311.26 19.9511C1312.85 20.0618 1314.13 20.4355 1314.39 21.2345C1314.77 22.5243 1312.51 24.8794 1310.34 26.7127Z" fill="url(#paint2_linear_167_3)"/>
<path d="M1326.64 45.394C1319.66 52.0871 1309.57 58.3782 1298.24 63.1084C1286.9 67.8386 1275.69 70.4368 1266.67 70.4173C1258.07 70.3842 1252.39 67.9116 1251.09 63.5924L1248.39 54.7099C1250.91 56.6546 1254.67 57.8402 1259.49 58.1773C1260.41 58.2415 1261.37 58.277 1262.36 58.2781C1271.57 58.2974 1282.99 55.66 1294.52 50.8493C1306.05 46.0386 1316.34 39.6251 1323.46 32.783C1328.27 28.1701 1331.29 23.6767 1332.37 19.6744L1335.07 28.5545C1336.37 32.8706 1333.3 39.0163 1326.64 45.394Z" fill="url(#paint3_linear_167_3)"/>
</g>
<path d="M78.8883 232.833L105.913 204.821L60.092 202.656L35.8848 230.11L78.8883 232.833ZM60.6133 204.275L88.8219 205.608L75.3052 219.608L48.1481 218.413L60.6133 204.275ZM75.7686 221.215L90.7488 205.701L102.505 206.257L78.4181 231.223L39.0447 228.73L46.7934 219.942L75.7686 221.215Z" fill="url(#paint4_linear_167_3)"/>
<path d="M83.6833 243.132L128.359 196.968L126.358 182.426L51.9253 177.706L11.3804 224.715L13.4382 239.713L83.6833 243.132ZM124.986 183.936L126.636 195.932L55.2784 192.475L53.1242 179.378L124.986 183.936ZM54.8725 194.042L125.831 197.483L83.2154 241.522L15.7378 238.233L54.8725 194.042ZM13.0155 225.056L51.6846 180.232L53.7943 193.064L14.6942 237.231L13.0155 225.056Z" fill="url(#paint5_linear_167_3)"/>
<path d="M53.1239 179.377L124.985 183.935L126.635 195.931L55.278 192.472L53.1239 179.377Z" fill="url(#paint6_linear_167_3)"/>
<path d="M14.6839 237.229L13.0098 225.057L51.6745 180.234L53.7842 193.065L14.6839 237.229Z" fill="url(#paint7_linear_167_3)"/>
<path d="M83.2158 241.522L125.832 197.483L54.8597 194.044L15.7272 238.235L83.2158 241.522ZM60.0922 202.657L105.913 204.822L78.8885 232.833L35.885 230.111L60.0922 202.657Z" fill="#F2CFFF"/>
<path d="M39.0533 228.72L46.802 219.932L75.7772 221.205L90.7575 205.691L102.513 206.247L78.4268 231.213L39.0533 228.72Z" fill="url(#paint8_linear_167_3)"/>
<defs>
<linearGradient id="paint0_linear_167_3" x1="1289.88" y1="16.4526" x2="1287.72" y2="47.3615" gradientUnits="userSpaceOnUse">
<stop stop-color="#7B5AFF"/>
<stop offset="1" stop-color="#2979FF"/>
</linearGradient>
<linearGradient id="paint1_linear_167_3" x1="1293.38" y1="4.00044" x2="1288.49" y2="74.0257" gradientUnits="userSpaceOnUse">
<stop stop-color="#7B5AFF"/>
<stop offset="1" stop-color="#2979FF"/>
</linearGradient>
<linearGradient id="paint2_linear_167_3" x1="1289.74" y1="18.447" x2="1287.86" y2="45.3707" gradientUnits="userSpaceOnUse">
<stop stop-color="#7B5AFF"/>
<stop offset="1" stop-color="#2979FF"/>
</linearGradient>
<linearGradient id="paint3_linear_167_3" x1="1293.68" y1="16.9707" x2="1289.83" y2="72.1278" gradientUnits="userSpaceOnUse">
<stop stop-color="#7B5AFF"/>
<stop offset="1" stop-color="#2979FF"/>
</linearGradient>
<linearGradient id="paint4_linear_167_3" x1="70.3364" y1="200.987" x2="75.6121" y2="233.366" gradientUnits="userSpaceOnUse">
<stop stop-color="#2979FF"/>
<stop offset="1" stop-color="#7B5AFF"/>
</linearGradient>
<linearGradient id="paint5_linear_167_3" x1="68.6461" y1="174.981" x2="79.8517" y2="243.756" gradientUnits="userSpaceOnUse">
<stop stop-color="#2979FF"/>
<stop offset="1" stop-color="#7B5AFF"/>
</linearGradient>
<linearGradient id="paint6_linear_167_3" x1="89.3958" y1="173.468" x2="93.9242" y2="201.261" gradientUnits="userSpaceOnUse">
<stop stop-color="#2979FF"/>
<stop offset="1" stop-color="#7B5AFF"/>
</linearGradient>
<linearGradient id="paint7_linear_167_3" x1="32.52" y1="183.354" x2="40.6096" y2="233.005" gradientUnits="userSpaceOnUse">
<stop stop-color="#2979FF"/>
<stop offset="1" stop-color="#7B5AFF"/>
</linearGradient>
<linearGradient id="paint8_linear_167_3" x1="70.4937" y1="208.993" x2="74.2256" y2="231.898" gradientUnits="userSpaceOnUse">
<stop stop-color="#2979FF"/>
<stop offset="1" stop-color="#7B5AFF"/>
</linearGradient>
<clipPath id="clip0_167_3">
<rect width="92" height="72" fill="white" transform="translate(1248.02) rotate(3.99801)"/>
</clipPath>
</defs>
</svg>
